G04 DipTrace 4.3.0.5*
G04 BoardOutline.gbr*
%MOIN*%
G04 #@! TF.FileFunction,Profile*
G04 #@! TF.Part,Single*
%ADD12C,0.005512*%
%FSLAX26Y26*%
G04*
G70*
G90*
G75*
G01*
G04 BoardOutline*
%LPD*%
X393701Y3070866D2*
D12*
X1023622D1*
G03X1023622Y3149606I0J39370D01*
G01*
X984252D1*
Y3740157D1*
X1023622D1*
G03X1023622Y3818898I0J39370D01*
G01*
X984252D1*
Y4488189D1*
X3937008D1*
Y4448819D1*
G03X4015748Y4448819I39370J0D01*
G01*
Y4488189D1*
X4803150D1*
Y2468504D1*
X4665354D1*
G03X4625984Y2429134I14J-39384D01*
G01*
Y1149606D1*
X4527559D1*
G03X4527559Y1070866I0J-39370D01*
G01*
X4566929D1*
Y393701D1*
X4015748D1*
Y433071D1*
G03X3937008Y433071I-39370J0D01*
G01*
Y393701D1*
X393701D1*
Y3070866D1*
X4015748Y1031496D2*
Y1070866D1*
X4232283D1*
X4251969Y1076140D1*
X4266379Y1090550D1*
X4271654Y1110235D1*
X4266379Y1129920D1*
X4251970Y1144331D1*
X4232285Y1149605D1*
X4192913Y1149606D1*
Y1188976D1*
X4187639Y1208661D1*
X4173228Y1223072D1*
X4153543Y1228346D1*
X4133858Y1223071D1*
X4119449Y1208660D1*
X4114175Y1188975D1*
X4114173Y1149606D1*
X4015748D1*
Y1188976D1*
X4010474Y1208661D1*
X3996063Y1223072D1*
X3976378Y1228346D1*
X3956693Y1223071D1*
X3942283Y1208660D1*
X3937009Y1188975D1*
X3937008Y1031496D1*
X3942282Y1011811D1*
X3956693Y997400D1*
X3976378Y992126D1*
X3996063Y997400D1*
X4010474Y1011810D1*
X4015749Y1031495D1*
X4015748Y551181D2*
Y913386D1*
X4010474Y933071D1*
X3996063Y947482D1*
X3976378Y952756D1*
X3956693Y947480D1*
X3942283Y933070D1*
X3937009Y913385D1*
X3937008Y551181D1*
X3942282Y531496D1*
X3956693Y517085D1*
X3976378Y511811D1*
X3996063Y517085D1*
X4010474Y531495D1*
X4015749Y551180D1*
X4015748Y2350394D2*
Y2389764D1*
X4114173D1*
Y2350394D1*
X4119448Y2330709D1*
X4133858Y2316298D1*
X4153543Y2311024D1*
X4173228Y2316298D1*
X4187639Y2330707D1*
X4192915Y2350392D1*
X4192913Y2429134D1*
X4191570Y2439322D1*
X4187635Y2448815D1*
X4181378Y2456969D1*
X4173226Y2463224D1*
X4163732Y2467159D1*
X4153545Y2468503D1*
X4015748Y2468504D1*
Y2507874D1*
X4010474Y2527559D1*
X3996063Y2541970D1*
X3976378Y2547244D1*
X3956693Y2541969D1*
X3942283Y2527558D1*
X3937009Y2507873D1*
X3937008Y2350394D1*
X3942282Y2330709D1*
X3956693Y2316298D1*
X3976378Y2311024D1*
X3996063Y2316298D1*
X4010474Y2330707D1*
X4015749Y2350392D1*
X4015748Y1307087D2*
Y2232283D1*
X4010474Y2251969D1*
X3996063Y2266379D1*
X3976378Y2271654D1*
X3956693Y2266378D1*
X3942283Y2251967D1*
X3937009Y2232282D1*
X3937008Y1307087D1*
X3942282Y1287402D1*
X3956693Y1272991D1*
X3976378Y1267717D1*
X3996063Y1272991D1*
X4010474Y1287400D1*
X4015749Y1307085D1*
X4015748Y2625984D2*
Y2913386D1*
X4010474Y2933071D1*
X3996063Y2947482D1*
X3976378Y2952756D1*
X3956693Y2947480D1*
X3942283Y2933070D1*
X3937009Y2913385D1*
X3937008Y2625984D1*
X3942282Y2606299D1*
X3956693Y2591888D1*
X3976378Y2586614D1*
X3996063Y2591888D1*
X4010474Y2606298D1*
X4015749Y2625983D1*
X3937008Y3149606D2*
X3897638D1*
X3877953Y3144331D1*
X3863542Y3129920D1*
X3858268Y3110235D1*
X3863543Y3090550D1*
X3877954Y3076139D1*
X3897639Y3070865D1*
X3937008Y3070866D1*
Y3031496D1*
X3942282Y3011811D1*
X3956693Y2997400D1*
X3976378Y2992126D1*
X3996063Y2997400D1*
X4010474Y3011810D1*
X4015749Y3031495D1*
X4015748Y3188976D1*
X4010474Y3208661D1*
X3996063Y3223072D1*
X3976378Y3228346D1*
X3956693Y3223071D1*
X3942283Y3208660D1*
X3937009Y3188975D1*
X3937008Y3149606D1*
X1948819Y3070866D2*
X1968504Y3076140D1*
X1982915Y3090550D1*
X1988189Y3110235D1*
X1982915Y3129920D1*
X1968505Y3144331D1*
X1948820Y3149605D1*
X1141732Y3149606D1*
X1122047Y3144331D1*
X1107636Y3129920D1*
X1102362Y3110235D1*
X1107638Y3090550D1*
X1122049Y3076139D1*
X1141734Y3070865D1*
X1948819Y3070866D1*
X2854331D2*
X2874016Y3076140D1*
X2888427Y3090550D1*
X2893701Y3110235D1*
X2888427Y3129920D1*
X2874017Y3144331D1*
X2854332Y3149605D1*
X2066929Y3149606D1*
X2047244Y3144331D1*
X2032833Y3129920D1*
X2027559Y3110235D1*
X2032835Y3090550D1*
X2047245Y3076139D1*
X2066930Y3070865D1*
X2854331Y3070866D1*
X3779528D2*
X3799213Y3076140D1*
X3813623Y3090550D1*
X3818898Y3110235D1*
X3813623Y3129920D1*
X3799214Y3144331D1*
X3779529Y3149605D1*
X2972441Y3149606D1*
X2952756Y3144331D1*
X2938345Y3129920D1*
X2933071Y3110235D1*
X2938346Y3090550D1*
X2952757Y3076139D1*
X2972442Y3070865D1*
X3779528Y3070866D1*
X4015748Y3858268D2*
X4010474Y3877953D1*
X3996063Y3892364D1*
X3976378Y3897638D1*
X3956693Y3892362D1*
X3942283Y3877951D1*
X3937009Y3858266D1*
X3937008Y3818898D1*
X3897638D1*
X3877953Y3813622D1*
X3863542Y3799211D1*
X3858268Y3779526D1*
X3863543Y3759841D1*
X3877954Y3745430D1*
X3897639Y3740156D1*
X3937008Y3740157D1*
Y3700787D1*
X3942282Y3681102D1*
X3956693Y3666692D1*
X3976378Y3661417D1*
X3996063Y3666692D1*
X4010474Y3681101D1*
X4015749Y3700786D1*
X4015748Y3858268D1*
Y3307087D2*
Y3582677D1*
X4010474Y3602362D1*
X3996063Y3616773D1*
X3976378Y3622047D1*
X3956693Y3616772D1*
X3942283Y3602361D1*
X3937009Y3582676D1*
X3937008Y3307087D1*
X3942282Y3287402D1*
X3956693Y3272991D1*
X3976378Y3267717D1*
X3996063Y3272991D1*
X4010474Y3287400D1*
X4015749Y3307085D1*
X1948819Y3818898D2*
X1968504Y3813623D1*
X1982915Y3799213D1*
X1988189Y3779528D1*
X1982915Y3759843D1*
X1968505Y3745432D1*
X1948820Y3740156D1*
X1141732Y3740157D1*
X1122047Y3745432D1*
X1107636Y3759843D1*
X1102362Y3779528D1*
X1107638Y3799213D1*
X1122049Y3813622D1*
X1141734Y3818896D1*
X1948819Y3818898D1*
X3779528D2*
X3799213Y3813623D1*
X3813623Y3799213D1*
X3818898Y3779528D1*
X3813623Y3759843D1*
X3799214Y3745432D1*
X3779529Y3740156D1*
X2972441Y3740157D1*
X2952756Y3745432D1*
X2938345Y3759843D1*
X2933071Y3779528D1*
X2938346Y3799213D1*
X2952757Y3813622D1*
X2972442Y3818896D1*
X3779528Y3818898D1*
X2854331D2*
X2066929D1*
X2047244Y3813622D1*
X2032833Y3799211D1*
X2027559Y3779526D1*
X2032835Y3759841D1*
X2047245Y3745430D1*
X2066930Y3740156D1*
X2854331Y3740157D1*
X2874016Y3745432D1*
X2888427Y3759841D1*
X2893701Y3779526D1*
X2888427Y3799211D1*
X2874017Y3813622D1*
X2854332Y3818896D1*
X4015748Y3976378D2*
Y4330709D1*
X4010474Y4350394D1*
X3996063Y4364804D1*
X3976378Y4370079D1*
X3956693Y4364803D1*
X3942283Y4350392D1*
X3937009Y4330707D1*
X3937008Y3976378D1*
X3942282Y3956693D1*
X3956693Y3942282D1*
X3976378Y3937008D1*
X3996063Y3942282D1*
X4010474Y3956692D1*
X4015749Y3976377D1*
X4409449Y1149606D2*
X4350394D1*
X4330709Y1144331D1*
X4316298Y1129920D1*
X4311024Y1110235D1*
X4316299Y1090550D1*
X4330710Y1076139D1*
X4350395Y1070865D1*
X4409449Y1070866D1*
X4429134Y1076140D1*
X4443545Y1090550D1*
X4448819Y1110235D1*
X4443545Y1129920D1*
X4429135Y1144331D1*
X4409450Y1149605D1*
X4114173Y2232283D2*
Y1307087D1*
X4119448Y1287402D1*
X4133858Y1272991D1*
X4153543Y1267717D1*
X4173228Y1272991D1*
X4187639Y1287400D1*
X4192915Y1307085D1*
X4192913Y2232283D1*
X4187639Y2251969D1*
X4173228Y2266379D1*
X4153543Y2271654D1*
X4133858Y2266378D1*
X4119449Y2251967D1*
X4114175Y2232282D1*
M02*
