M48
INCH
T01C0.0118
T02C0.028
T03C0.0315
T04C0.0335
T05C0.0354
T06C0.0394
T07C0.0449
T08C0.0472
T09C0.0504
T10C0.0551
%
T01
X+010236Y+044488
X+011969Y+044488
X+011831Y+043661
X+013031Y+043110
X+012402Y+042362
X+011732Y+041535
X+011299Y+042441
X+010197Y+042441
X+010197Y+041496
X+010197Y+040551
X+011299Y+040079
X+011417Y+038583
X+010236Y+038583
X+010236Y+037008
X+011417Y+037008
X+012598Y+037008
X+011811Y+035827
X+010236Y+035827
X+010276Y+034567
X+010236Y+033071
X+010236Y+031890
X+011811Y+031890
X+011811Y+032953
X+013189Y+031850
X+012520Y+030276
X+013228Y+028622
X+013740Y+027402
X+015433Y+027559
X+016417Y+026535
X+017008Y+027520
X+017087Y+028701
X+016811Y+030315
X+015748Y+031890
X+017323Y+032677
X+018110Y+031890
X+018504Y+032677
X+018504Y+033858
X+018504Y+035039
X+018504Y+036220
X+018504Y+037008
X+016929Y+037008
X+016929Y+036220
X+017323Y+035039
X+017323Y+033858
X+019685Y+033858
X+019685Y+035039
X+020079Y+036220
X+020079Y+037008
X+021260Y+037008
X+021260Y+036220
X+021260Y+035039
X+021260Y+033858
X+021260Y+032677
X+020079Y+031890
X+019685Y+032677
X+023228Y+031890
X+024409Y+031890
X+025591Y+031890
X+026772Y+032677
X+027559Y+031890
X+028346Y+032677
X+028346Y+033858
X+028346Y+035039
X+027953Y+035433
X+026890Y+034449
X+026772Y+033858
X+025197Y+033465
X+023622Y+033858
X+023425Y+034449
X+022835Y+030118
X+022520Y+027559
X+022087Y+026575
X+020709Y+025787
X+020315Y+024409
X+021496Y+024528
X+022323Y+023543
X+022835Y+022835
X+021535Y+023071
X+019685Y+022953
X+020197Y+021142
X+020197Y+020079
X+021063Y+019252
X+021850Y+019331
X+022638Y+019291
X+023031Y+020315
X+022559Y+021496
X+023661Y+021457
X+024213Y+022756
X+025079Y+021457
X+026102Y+021181
X+027087Y+020669
X+026890Y+019331
X+026142Y+019291
X+025276Y+020236
X+024055Y+019173
X+024488Y+017205
X+023228Y+016654
X+022835Y+014843
X+023819Y+012874
X+025512Y+012402
X+026850Y+011654
X+026850Y+010079
X+026220Y+009055
X+026260Y+008465
X+026969Y+008465
X+025551Y+008386
X+024606Y+008386
X+023701Y+008661
X+023189Y+008346
X+022795Y+008661
X+022008Y+008858
X+021220Y+009685
X+020827Y+008780
X+020984Y+008150
X+019921Y+008858
X+019449Y+009409
X+018110Y+010000
X+017953Y+008465
X+016772Y+008858
X+016654Y+007205
X+017835Y+005984
X+016575Y+004803
X+014252Y+006024
X+014213Y+007205
X+012559Y+006811
X+012480Y+004882
X+010709Y+004961
X+009094Y+004449
X+009173Y+006496
X+008150Y+007756
X+009606Y+009606
X+010709Y+008622
X+011378Y+010157
X+013110Y+008701
X+014528Y+010551
X+014016Y+013071
X+011378Y+013228
X+009724Y+012677
X+008150Y+011654
X+006220Y+009567
X+004449Y+007598
X+006417Y+006024
X+004370Y+004370
X+004528Y+011693
X+004409Y+015000
X+006339Y+016732
X+008110Y+018307
X+009213Y+018858
X+010433Y+018661
X+011181Y+019291
X+011693Y+019016
X+011772Y+017992
X+011024Y+016181
X+009724Y+015945
X+008110Y+015000
X+006614Y+019685
X+008228Y+020709
X+009528Y+020157
X+009606Y+021417
X+009409Y+023110
X+008071Y+024488
X+006535Y+023189
X+004488Y+024921
X+004370Y+027480
X+006378Y+028898
X+007244Y+030197
X+009016Y+030236
X+008386Y+027441
X+010000Y+026732
X+011339Y+026063
X+011535Y+024409
X+012205Y+023661
X+011417Y+023071
X+011260Y+021929
X+011339Y+020945
X+012283Y+020236
X+013150Y+020000
X+012638Y+021102
X+013150Y+022205
X+013150Y+023071
X+013150Y+024370
X+014449Y+024331
X+014606Y+025669
X+016024Y+023819
X+017598Y+024528
X+018346Y+024370
X+017480Y+025669
X+017480Y+022165
X+018543Y+021024
X+018346Y+019094
X+017598Y+019094
X+019173Y+019173
X+020039Y+018465
X+020827Y+016575
X+020354Y+015472
X+018661Y+016654
X+017362Y+016654
X+018622Y+014331
X+016890Y+012992
X+018071Y+012008
X+020433Y+011693
X+020748Y+013346
X+022717Y+011102
X+023110Y+009567
X+024961Y+009606
X+025591Y+010197
X+028110Y+009331
X+029252Y+008543
X+029488Y+007126
X+030472Y+006339
X+031102Y+007598
X+031181Y+008937
X+029882Y+010118
X+029606Y+011850
X+028189Y+012756
X+026811Y+013976
X+025591Y+015236
X+026142Y+016732
X+028189Y+016890
X+028661Y+015591
X+030079Y+014646
X+031063Y+015787
X+031535Y+016535
X+031890Y+016535
X+032520Y+016417
X+032598Y+018031
X+033780Y+018031
X+034764Y+019055
X+035079Y+019449
X+034685Y+020118
X+035000Y+020827
X+035000Y+022087
X+035000Y+023110
X+035197Y+024567
X+035748Y+025669
X+037835Y+025315
X+038504Y+025984
X+038819Y+026850
X+038622Y+027874
X+037598Y+026772
X+035472Y+027795
X+036575Y+029252
X+038701Y+030157
X+038976Y+031890
X+038976Y+033071
X+038189Y+033465
X+038976Y+034646
X+038976Y+035827
X+038976Y+037008
X+038937Y+038622
X+037362Y+039764
X+037362Y+041260
X+038858Y+041024
X+040630Y+041535
X+041949Y+039764
X+044528Y+039646
X+043661Y+037677
X+043740Y+036850
X+044095Y+036220
X+043386Y+035157
X+043465Y+034094
X+045236Y+033622
X+045669Y+033150
X+045669Y+034409
X+045472Y+035984
X+046220Y+037677
X+047382Y+038031
X+047520Y+036024
X+047598Y+033937
X+045787Y+031850
X+045118Y+031181
X+043425Y+031102
X+041850Y+029724
X+040591Y+030197
X+040591Y+029252
X+040591Y+027953
X+041811Y+027480
X+041417Y+026772
X+040669Y+025354
X+042323Y+024331
X+044370Y+024331
X+045866Y+024331
X+045787Y+023031
X+045551Y+021575
X+044291Y+021535
X+042362Y+021299
X+042362Y+018189
X+044291Y+018346
X+045866Y+018346
X+045354Y+019843
X+045433Y+016614
X+045669Y+015512
X+044567Y+015315
X+045433Y+014016
X+045669Y+012165
X+044528Y+012008
X+045197Y+010354
X+044449Y+009961
X+044331Y+009213
X+044882Y+009331
X+044882Y+008268
X+044331Y+008346
X+044409Y+007598
X+044764Y+006299
X+043898Y+006260
X+044213Y+005394
X+044213Y+004291
X+045236Y+004291
X+043032Y+004291
X+041850Y+004291
X+041496Y+005118
X+041063Y+005787
X+040512Y+006220
X+040512Y+007205
X+040512Y+008189
X+041024Y+008150
X+041654Y+007638
X+041732Y+007165
X+042087Y+007087
X+041693Y+006791
X+041693Y+006299
X+042283Y+006260
X+042598Y+007441
X+042165Y+008228
X+043110Y+008189
X+043110Y+009409
X+043386Y+010039
X+042283Y+010000
X+042165Y+009488
X+041575Y+010354
X+041220Y+010000
X+040512Y+010354
X+040512Y+009331
X+038740Y+010827
X+037992Y+012047
X+038465Y+013740
X+037638Y+014567
X+038071Y+015945
X+037795Y+017677
X+036378Y+018110
X+035354Y+017047
X+034213Y+016417
X+036024Y+015394
X+034803Y+013406
X+034547Y+012323
X+033976Y+014213
X+032047Y+014173
X+031850Y+011772
X+033071Y+010984
X+033543Y+008858
X+034449Y+007205
X+032756Y+006102
X+032047Y+004528
X+035472Y+004488
X+038583Y+004528
X+040551Y+004291
X+038583Y+006850
X+036457Y+008740
X+042441Y+011968
X+042638Y+013898
X+037795Y+021063
X+037008Y+021102
X+036181Y+020354
X+036181Y+019843
X+033307Y+020315
X+033150Y+021260
X+032953Y+022008
X+033622Y+022008
X+032598Y+022992
X+031693Y+022126
X+031811Y+020866
X+032205Y+020000
X+031969Y+019055
X+031220Y+018228
X+030000Y+018976
X+029094Y+019449
X+028307Y+019252
X+028465Y+020827
X+029370Y+021850
X+030000Y+020630
X+030984Y+019882
X+029882Y+016850
X+026929Y+022087
X+028110Y+023228
X+026969Y+024528
X+025866Y+024449
X+026260Y+025709
X+024094Y+025630
X+024213Y+024528
X+023031Y+024528
X+024055Y+027835
X+025945Y+028858
X+027717Y+030079
X+028465Y+027795
X+030551Y+029213
X+032382Y+027717
X+032441Y+026339
X+031496Y+024528
X+030394Y+023346
X+029331Y+024488
X+029921Y+025709
X+033228Y+024213
X+037638Y+022677
X+043465Y+027008
X+043937Y+027913
X+045157Y+027953
X+045669Y+026575
X+044685Y+026260
X+047087Y+026299
X+047559Y+025197
X+046732Y+027835
X+047441Y+028189
X+046732Y+029803
X+047638Y+030787
X+040512Y+031299
X+040551Y+034370
X+040531Y+035157
X+041654Y+035472
X+041693Y+036732
X+036024Y+038661
X+033937Y+038622
X+034134Y+039803
X+034646Y+041181
X+035827Y+041299
X+035984Y+043071
X+034567Y+043150
X+034827Y+044331
X+032992Y+044213
X+031535Y+044449
X+029921Y+042795
X+029921Y+041890
X+031220Y+040906
X+031142Y+039724
X+031535Y+038661
X+030709Y+036614
X+030315Y+035827
X+029921Y+035039
X+030315Y+033858
X+030709Y+032677
X+031496Y+031890
X+032283Y+032677
X+031890Y+033858
X+031890Y+035039
X+032283Y+036220
X+029134Y+036614
X+028110Y+039094
X+027520Y+040748
X+028661Y+040787
X+028543Y+042835
X+029134Y+044370
X+027402Y+044252
X+026890Y+042835
X+026181Y+042874
X+025157Y+044409
X+023071Y+044528
X+022528Y+042929
X+022362Y+042008
X+022205Y+041496
X+022717Y+040984
X+023898Y+041024
X+024094Y+040000
X+024055Y+039213
X+025433Y+040551
X+021890Y+040000
X+021535Y+039173
X+020551Y+039961
X+019528Y+039134
X+018465Y+039134
X+018268Y+041102
X+017677Y+041693
X+016693Y+041850
X+016102Y+041142
X+016496Y+040591
X+015748Y+039803
X+016260Y+039213
X+015118Y+039094
X+014134Y+039134
X+014016Y+039882
X+013898Y+041181
X+015039Y+041299
X+015472Y+042362
X+015866Y+043150
X+015315Y+044488
X+013622Y+044488
X+014252Y+043150
X+014173Y+042362
X+012717Y+039094
X+015551Y+037047
X+020079Y+041654
X+020394Y+042913
X+021142Y+042953
X+021457Y+043780
X+020551Y+044528
X+019409Y+043740
X+018819Y+042913
X+017717Y+043740
X+017087Y+044488
X+018425Y+044528
X+021260Y+041102
X+029528Y+031890
X+033504Y+030118
X+020630Y+028543
X+015000Y+029685
X+014370Y+022362
X+015984Y+021339
X+015906Y+019685
X+014370Y+019764
X+014016Y+015748
X+004331Y+018228
X+004409Y+020748
X+006614Y+026457
X+004449Y+030157
X+019370Y+007126
X+020866Y+006299
X+022047Y+007047
X+022795Y+007323
X+023346Y+007126
X+023386Y+006496
X+023937Y+006142
X+024685Y+006299
X+024291Y+007244
X+025866Y+007441
X+026142Y+005906
X+027244Y+004882
X+028425Y+004409
X+028189Y+005906
X+027480Y+007087
X+023898Y+004764
X+022638Y+004843
X+021417Y+004882
X+022520Y+006378
X+037717Y+042795
X+038898Y+042913
X+038819Y+044291
X+040669Y+044252
X+041535Y+043583
X+043110Y+044370
X+043150Y+042559
X+045236Y+042992
X+045354Y+044449
X+047480Y+044409
X+047362Y+043189
X+047402Y+040827
T02
X+043595Y+041535
X+044595Y+041535
X+044595Y+014370
X+043595Y+014370
T03
X+021457Y+007874
X+020457Y+007874
X+019457Y+007874
X+018457Y+007874
X+017457Y+007874
X+016457Y+007874
X+015457Y+007874
X+014457Y+007874
X+013457Y+007874
X+012457Y+007874
X+022457Y+007874
X+023457Y+007874
X+024457Y+007874
X+025457Y+007874
X+026457Y+007874
X+027457Y+007874
X+028457Y+007874
X+029457Y+007874
X+030457Y+007874
X+030457Y+017874
X+029457Y+017874
X+028457Y+017874
X+027457Y+017874
X+026457Y+017874
X+025457Y+017874
X+024457Y+017874
X+023457Y+017874
X+022457Y+017874
X+021457Y+017874
X+020457Y+017874
X+019457Y+017874
X+018457Y+017874
X+017457Y+017874
X+016457Y+017874
X+015457Y+017874
X+014457Y+017874
X+013457Y+017874
X+012457Y+017874
X+014685Y+033209G85X+014055Y+033209
X+013130Y+034764G85X+013130Y+034134
X+014685Y+035689G85X+014055Y+035689
X+015610Y+034764G85X+015610Y+034134
X+026713Y+040866G85X+026713Y+039803
X+028681Y+041772G85X+027618Y+041772
X+029587Y+040866G85X+029587Y+039803
X+035295Y+040354G85X+036752Y+040354
X+035295Y+042224G85X+036752Y+042224
X+035157Y+035689G85X+034528Y+035689
X+036083Y+034764G85X+036083Y+034134
X+035157Y+033209G85X+034528Y+033209
X+033602Y+034764G85X+033602Y+034134
T04
X+008701Y+013071
X+006732Y+013071
X+006732Y+018228
X+008701Y+018228
T05
X+036969Y+006575
X+033976Y+006575
T06
X+023394Y+042654
X+023394Y+041654
X+024394Y+041654
X+024394Y+042654
X+025394Y+042654
X+025394Y+041654
X+025106Y+036614
X+024106Y+036614
X+023116Y+036614
X+022106Y+036614
X+026106Y+036614
X+027106Y+036614
X+030661Y+041654
X+031661Y+041654
X+031661Y+042654
X+030661Y+042654
X+032661Y+042654
X+033661Y+042654
X+033661Y+041654
X+032661Y+041654
X+040945Y+042057
X+040945Y+041067
X+040945Y+040067
X+040945Y+039067
X+040945Y+038067
X+040945Y+037067
X+040945Y+036067
X+040945Y+043067
X+042181Y+025512
X+043181Y+025512
X+044181Y+025512
X+045181Y+025512
X+046181Y+025512
X+036693Y+024602
X+036693Y+023602
X+036693Y+022602
X+036693Y+021602
X+036693Y+020602
X+036693Y+019602
X+036693Y+018602
X+036693Y+017602
X+034134Y+018575
X+034134Y+019575
X+034134Y+020575
X+034134Y+021575
X+034134Y+022575
X+034134Y+023575
X+034134Y+024575
X+024654Y+022165
X+023654Y+022165
X+022654Y+022165
X+021654Y+022165
X+020654Y+022165
X+019654Y+022165
X+018654Y+022165
X+019154Y+005512
X+020154Y+005512
X+021154Y+005512
X+022154Y+005512
X+023154Y+005512
X+024154Y+005512
X+036693Y+011453
X+036693Y+012453
X+036693Y+013443
X+036693Y+014453
X+045177Y+009823
X+045177Y+008823
X+045177Y+007823
X+045177Y+006823
X+045177Y+005833
X+045177Y+004823
X+010630Y+040035
X+010630Y+041035
X+010630Y+042026
X+010630Y+043035
T07
X+019913Y+029213
X+019913Y+028213
X+018913Y+028213
X+018913Y+029213
X+017913Y+029213
X+017913Y+028213
X+012646Y+028213
X+012646Y+029213
X+011646Y+029213
X+011646Y+028213
X+010646Y+028213
X+010646Y+029213
X+009646Y+029213
X+009646Y+028213
T08
X+044094Y+033268G85X+044094Y+031693
X+041289Y+033268G85X+041289Y+031693
X+046900Y+033268G85X+046900Y+031693
T09
X+013701Y+025079
X+012701Y+025079
X+011701Y+025079
X+010701Y+025079
X+009701Y+025079
X+008701Y+025079
T10
X+019449Y+040591
X+020709Y+040591
X+020079Y+039488
X+014252Y+040610
X+013386Y+040335
X+012520Y+040610
X+013386Y+039390
T00
M30
